<svg width="80" height="80" viewBox="0 0 80 80" fill="none" xmlns="http://www.w3.org/2000/svg">
<g clip-path="url(#clip0_1_380)">
<path d="M58 1.33337H23.3333C20.388 1.33337 18 3.72139 18 6.66671V9.33337H63.3333V5.33337C63.3333 3.72139 60.9453 1.33337 58 1.33337Z" fill="#282828"/>
<path d="M18 73.3333C18 76.2786 20.388 78.6667 23.3333 78.6667H58C60.9453 78.6667 63.3333 76.2786 63.3333 73.3333V68H18V73.3333Z" fill="#282828"/>
<path d="M31.3334 40C31.3334 32.636 25.364 26.6666 18.0001 26.6666C10.6361 26.6666 4.66675 32.636 4.66675 40C4.66675 47.3639 10.6361 53.3333 18.0001 53.3333C25.364 53.3333 31.3334 47.3639 31.3334 40ZM12.6667 45.3333H15.3334V34.6666H18.0001H20.6667C22.1394 34.6666 23.3334 35.8606 23.3334 37.3333C23.3334 38.8059 22.1394 40 20.6667 40C22.1394 40 23.3334 41.194 23.3334 42.6666C23.3334 44.1393 22.1394 45.3333 20.6667 45.3333H18.0001H12.6667Z" fill="#282828"/>
<path d="M47.3333 45.3334H71.3333L75.3333 29.3334H47.3333V45.3334Z" fill="#282828"/>
<path d="M23.3333 37.3333C23.3333 35.8606 22.1392 34.6666 20.6666 34.6666H15.3333V40H20.6666C22.1392 40 23.3333 38.8059 23.3333 37.3333Z" fill="#282828"/>
<path d="M20.6666 45.3333C22.1392 45.3333 23.3333 44.1393 23.3333 42.6667C23.3333 41.194 22.1392 40 20.6666 40H15.3333V45.3333H20.6666Z" fill="#282828"/>
<path d="M17.9998 22.6667C18.7362 22.6667 19.3332 22.0697 19.3332 21.3333V10.6667H61.9998V24C61.9998 24.7363 62.5968 25.3333 63.3332 25.3333C64.0695 25.3333 64.6665 24.7363 64.6665 24V5.33333C64.6665 2.93359 61.5903 0 57.9998 0H23.3332C19.6528 0.0045573 16.6711 2.98633 16.6665 6.66667V21.3333C16.6665 22.0697 17.2635 22.6667 17.9998 22.6667ZM23.3332 2.66667H57.9998C60.3104 2.66667 61.9998 4.5332 61.9998 5.33333V8H19.3332V6.66667C19.3332 4.45768 21.1242 2.66667 23.3332 2.66667Z" fill="url(#paint0_linear_1_380)"/>
<path d="M63.3332 58.6667C62.5968 58.6667 61.9998 59.2637 61.9998 60V66.6667H19.3332V58.6667C19.3332 57.9304 18.7362 57.3334 17.9998 57.3334C17.2635 57.3334 16.6665 57.9304 16.6665 58.6667V73.3334C16.6711 77.0137 19.6528 79.9955 23.3332 80H57.9998C61.6802 79.9955 64.662 77.0137 64.6665 73.3334V60C64.6665 59.2637 64.0695 58.6667 63.3332 58.6667ZM57.9998 77.3334H23.3332C21.1242 77.3334 19.3332 75.5424 19.3332 73.3334V69.3334H61.9998V73.3334C61.9998 75.5424 60.2088 77.3334 57.9998 77.3334Z" fill="url(#paint1_linear_1_380)"/>
<path d="M39.3333 6.66667H42C42.7363 6.66667 43.3333 6.06966 43.3333 5.33333C43.3333 4.59701 42.7363 4 42 4H39.3333C38.597 4 38 4.59701 38 5.33333C38 6.06966 38.597 6.66667 39.3333 6.66667Z" fill="url(#paint2_linear_1_380)"/>
<path d="M32.6666 40C32.6666 31.8998 26.1002 25.3334 17.9999 25.3334C9.89966 25.3334 3.33325 31.8998 3.33325 40C3.33325 48.1003 9.89966 54.6667 17.9999 54.6667C26.0963 54.6569 32.6568 48.0964 32.6666 40ZM5.99992 40C5.99992 33.3724 11.3723 28 17.9999 28C24.6275 28 29.9999 33.3724 29.9999 40C29.9999 46.6276 24.6275 52 17.9999 52C11.3756 51.9929 6.00708 46.6244 5.99992 40Z" fill="url(#paint3_linear_1_380)"/>
<path d="M76.3841 28.513C76.1315 28.1895 75.7441 28 75.3333 28H47.3333C46.597 28 46 28.597 46 29.3333V45.3333C46 46.0697 46.597 46.6667 47.3333 46.6667H71.3333C71.9453 46.6667 72.4785 46.25 72.627 45.6562L76.627 29.6562C76.7259 29.2578 76.6361 28.8366 76.3841 28.513ZM70.2923 44H48.6667V30.6667H73.6257L70.2923 44Z" fill="url(#paint4_linear_1_380)"/>
<path d="M65.9999 48C64.3111 48.0071 62.8085 49.0742 62.2454 50.6666H56.4211C55.8645 49.069 54.358 47.9987 52.6666 47.9987C50.9752 47.9987 49.4687 49.069 48.912 50.6666H45.9999C45.2636 50.6666 44.6666 50.0696 44.6666 49.3333V26.6666C44.6666 24.4576 42.8756 22.6666 40.6666 22.6666H35.3333V25.3333H40.6666C41.4029 25.3333 41.9999 25.9303 41.9999 26.6666V49.3333C41.9999 51.5423 43.7909 53.3333 45.9999 53.3333H48.912C49.4687 54.931 50.9752 56.0013 52.6666 56.0013C54.358 56.0013 55.8645 54.931 56.4211 53.3333H62.2454C62.9264 55.2461 64.9348 56.3431 66.9127 55.8828C68.8899 55.4225 70.2076 53.5514 69.9739 51.5338C69.7402 49.5169 68.0305 47.9961 65.9999 48ZM52.6666 53.3333C51.9303 53.3333 51.3333 52.7363 51.3333 52C51.3333 51.2636 51.9303 50.6666 52.6666 50.6666C53.4029 50.6666 53.9999 51.2636 53.9999 52C53.9999 52.7363 53.4029 53.3333 52.6666 53.3333ZM65.9999 53.3333C65.2636 53.3333 64.6666 52.7363 64.6666 52C64.6666 51.2636 65.2636 50.6666 65.9999 50.6666C66.7362 50.6666 67.3333 51.2636 67.3333 52C67.3333 52.7363 66.7362 53.3333 65.9999 53.3333Z" fill="url(#paint5_linear_1_380)"/>
<path d="M19.3333 48V46.6666H20.6666C22.2473 46.6738 23.6829 45.7448 24.3241 44.3001C24.9654 42.8554 24.692 41.1679 23.6269 40C24.692 38.832 24.9654 37.1445 24.3241 35.6998C23.6829 34.2552 22.2473 33.3261 20.6666 33.3333H19.3333V32C19.3333 31.2636 18.7362 30.6666 17.9999 30.6666C17.2636 30.6666 16.6666 31.2636 16.6666 32V33.3333H12.6666C11.9303 33.3333 11.3333 33.9303 11.3333 34.6666C11.3333 35.403 11.9303 36 12.6666 36H13.9999V44H12.6666C11.9303 44 11.3333 44.597 11.3333 45.3333C11.3333 46.0696 11.9303 46.6666 12.6666 46.6666H16.6666V48C16.6666 48.7363 17.2636 49.3333 17.9999 49.3333C18.7362 49.3333 19.3333 48.7363 19.3333 48ZM21.9999 37.3333C21.9999 38.0696 21.4029 38.6666 20.6666 38.6666H16.6666V36H20.6666C21.4029 36 21.9999 36.597 21.9999 37.3333ZM16.6666 41.3333H20.6666C21.4029 41.3333 21.9999 41.9303 21.9999 42.6666C21.9999 43.403 21.4029 44 20.6666 44H16.6666V41.3333Z" fill="url(#paint6_linear_1_380)"/>
<path d="M43.3332 72H37.9998C37.2635 72 36.6665 72.597 36.6665 73.3333C36.6665 74.0697 37.2635 74.6667 37.9998 74.6667H43.3332C44.0695 74.6667 44.6665 74.0697 44.6665 73.3333C44.6665 72.597 44.0695 72 43.3332 72Z" fill="url(#paint7_linear_1_380)"/>
</g>
<defs>
<linearGradient id="paint0_linear_1_380" x1="40.6665" y1="0" x2="40.6665" y2="25.3333" gradientUnits="userSpaceOnUse">
<stop offset="0.286458" stop-color="#FB9505"/>
<stop offset="1" stop-color="#FC0076"/>
</linearGradient>
<linearGradient id="paint1_linear_1_380" x1="40.6665" y1="57.3334" x2="40.6665" y2="80" gradientUnits="userSpaceOnUse">
<stop offset="0.286458" stop-color="#FB9505"/>
<stop offset="1" stop-color="#FC0076"/>
</linearGradient>
<linearGradient id="paint2_linear_1_380" x1="40.6667" y1="4" x2="40.6667" y2="6.66667" gradientUnits="userSpaceOnUse">
<stop offset="0.286458" stop-color="#FB9505"/>
<stop offset="1" stop-color="#FC0076"/>
</linearGradient>
<linearGradient id="paint3_linear_1_380" x1="17.9999" y1="25.3334" x2="17.9999" y2="54.6667" gradientUnits="userSpaceOnUse">
<stop offset="0.286458" stop-color="#FB9505"/>
<stop offset="1" stop-color="#FC0076"/>
</linearGradient>
<linearGradient id="paint4_linear_1_380" x1="61.3332" y1="28" x2="61.3332" y2="46.6667" gradientUnits="userSpaceOnUse">
<stop offset="0.286458" stop-color="#FB9505"/>
<stop offset="1" stop-color="#FC0076"/>
</linearGradient>
<linearGradient id="paint5_linear_1_380" x1="52.667" y1="22.6666" x2="52.667" y2="56.0013" gradientUnits="userSpaceOnUse">
<stop offset="0.286458" stop-color="#FB9505"/>
<stop offset="1" stop-color="#FC0076"/>
</linearGradient>
<linearGradient id="paint6_linear_1_380" x1="18" y1="30.6666" x2="18" y2="49.3333" gradientUnits="userSpaceOnUse">
<stop offset="0.286458" stop-color="#FB9505"/>
<stop offset="1" stop-color="#FC0076"/>
</linearGradient>
<linearGradient id="paint7_linear_1_380" x1="40.6665" y1="72" x2="40.6665" y2="74.6667" gradientUnits="userSpaceOnUse">
<stop offset="0.286458" stop-color="#FB9505"/>
<stop offset="1" stop-color="#FC0076"/>
</linearGradient>
<clipPath id="clip0_1_380">
<rect width="80" height="80" fill="white"/>
</clipPath>
</defs>
</svg>
