<svg width="80" height="80" viewBox="0 0 80 80" fill="none" xmlns="http://www.w3.org/2000/svg">
<g clip-path="url(#clip0_1_425)">
<path d="M58.9062 37.8125C47.2752 37.8125 37.8125 47.2752 37.8125 58.9062C37.8125 70.5373 47.2752 80 58.9062 80C70.5373 80 80 70.5373 80 58.9062C80 47.2752 70.5373 37.8125 58.9062 37.8125ZM58.9062 73.75C50.7214 73.75 44.0625 67.0911 44.0625 58.9062C44.0625 50.7214 50.7214 44.0625 58.9062 44.0625C67.0911 44.0625 73.75 50.7214 73.75 58.9062C73.75 67.0911 67.0911 73.75 58.9062 73.75ZM61.875 55.7812H67.1875V62.0312H55.625V48.4375H61.875V55.7812ZM70.625 6.25H66.875V0H60.625V6.25H19.375V0H13.125V6.25H9.375C4.20563 6.25 0 10.4556 0 15.625V70.625C0 75.7944 4.20563 80 9.375 80H30.1562H30.625H41.5253C39.3647 78.2166 37.4828 76.1077 35.953 73.75H30.625H30.1562H9.375C7.65188 73.75 6.25 72.3481 6.25 70.625V29.375H73.75V35.625V35.9375V35.953C76.1075 37.4828 78.2166 39.3648 80 41.5253V35.9375V35.625V15.625C80 10.4556 75.7944 6.25 70.625 6.25ZM6.25 23.125V15.625C6.25 13.9019 7.65188 12.5 9.375 12.5H13.125V18.75H19.375V12.5H60.625V18.75H66.875V12.5H70.625C72.3481 12.5 73.75 13.9019 73.75 15.625V23.125H6.25ZM18.125 42.1875H11.875V35.9375H18.125V42.1875ZM30.625 42.1875H24.375V35.9375H30.625V42.1875ZM43.125 35.9375V42.1875H36.875V35.9375H43.125ZM18.125 54.6875H11.875V48.4375H18.125V54.6875ZM30.625 54.6875H24.375V48.4375H30.625V54.6875ZM11.875 60.9375H18.125V67.1875H11.875V60.9375ZM24.375 60.9375H30.625V67.1875H24.375V60.9375Z" fill="url(#paint0_linear_1_425)"/>
</g>
<defs>
<linearGradient id="paint0_linear_1_425" x1="40" y1="0" x2="40" y2="80" gradientUnits="userSpaceOnUse">
<stop offset="0.286458" stop-color="#FB9505"/>
<stop offset="1" stop-color="#FC0076"/>
</linearGradient>
<clipPath id="clip0_1_425">
<rect width="80" height="80" fill="white"/>
</clipPath>
</defs>
</svg>
