<svg width="80" height="80" viewBox="0 0 80 80" fill="none" xmlns="http://www.w3.org/2000/svg">
<mask id="mask0_1_398" style="mask-type:luminance" maskUnits="userSpaceOnUse" x="0" y="0" width="80" height="80">
<path d="M0 7.62939e-06H80V80H0V7.62939e-06Z" fill="white"/>
</mask>
<g mask="url(#mask0_1_398)">
<path d="M39.2458 39.2253L40.8116 30.5497C40.8508 30.3466 41.1341 30.3275 41.2001 30.5238L43.7474 39.1577C43.8091 39.3416 44.0698 39.3403 44.1296 39.1558L46.5899 30.5252C46.6538 30.3285 46.9373 30.3444 46.9785 30.5471L48.6371 39.2253" stroke="url(#paint0_linear_1_398)" stroke-width="2.34375" stroke-miterlimit="10" stroke-linecap="round" stroke-linejoin="round"/>
<path d="M25.3122 34.8403C25.3122 37.2225 23.9901 39.1073 21.8926 39.1439C21.1943 39.1562 19.39 39.1631 19.39 39.1631C19.39 39.1631 19.3786 36.0315 19.3786 34.8307C19.3786 33.8445 19.3723 30.5176 19.3723 30.5176H21.8209C24.1215 30.5176 25.3122 32.4582 25.3122 34.8403Z" stroke="url(#paint1_linear_1_398)" stroke-width="2.34375" stroke-miterlimit="10" stroke-linecap="round" stroke-linejoin="round"/>
<path d="M61.7214 34.8404C61.7214 37.3005 59.727 39.2949 57.267 39.2949C54.8069 39.2949 52.8125 37.3005 52.8125 34.8404C52.8125 32.3802 54.8069 30.386 57.267 30.386C59.727 30.386 61.7214 32.3802 61.7214 34.8404Z" stroke="url(#paint2_linear_1_398)" stroke-width="2.34375" stroke-miterlimit="10" stroke-linecap="round" stroke-linejoin="round"/>
<path d="M33.9268 30.4265H30.2073V39.2542H33.9268" stroke="url(#paint3_linear_1_398)" stroke-width="2.34375" stroke-miterlimit="10" stroke-linecap="round" stroke-linejoin="round"/>
<path d="M33.6526 34.8403H30.2073" stroke="url(#paint4_linear_1_398)" stroke-width="2.34375" stroke-miterlimit="10" stroke-linecap="round" stroke-linejoin="round"/>
<path d="M75.8996 58.5532H4.10034V16.4509C4.10034 13.7067 6.32488 11.4821 9.06909 11.4821H70.9308C73.675 11.4821 75.8996 13.7067 75.8996 16.4509V58.5532Z" stroke="url(#paint5_linear_1_398)" stroke-width="2.34375" stroke-miterlimit="10" stroke-linecap="round" stroke-linejoin="round"/>
<path d="M28.2483 16.9507H68.9836C69.7828 16.9507 70.4308 17.5986 70.4308 18.3979V51.4766C70.4308 52.276 69.7828 52.924 68.9836 52.924H11.0163C10.2169 52.924 9.56909 52.276 9.56909 51.4766V18.3979C9.56909 17.5986 10.2169 16.9507 11.0163 16.9507H23.5608" stroke="url(#paint6_linear_1_398)" stroke-width="2.34375" stroke-miterlimit="10" stroke-linecap="round" stroke-linejoin="round"/>
<path d="M66.4091 68.5178H73.5412C76.4612 68.5178 78.8284 66.1506 78.8284 63.2306V59.568C78.8284 59.0075 78.374 58.5531 77.8135 58.5531H2.18696C1.62649 58.5531 1.17212 59.0075 1.17212 59.568V63.2306C1.17212 66.1506 3.53931 68.5178 6.45931 68.5178H61.7216" stroke="url(#paint7_linear_1_398)" stroke-width="2.34375" stroke-miterlimit="10" stroke-linecap="round" stroke-linejoin="round"/>
<path d="M52.5661 63.5356H25.1066C23.5799 63.5356 22.342 62.298 22.342 60.7713V58.5533H55.3306V60.7713C55.3306 62.298 54.0928 63.5356 52.5661 63.5356Z" stroke="url(#paint8_linear_1_398)" stroke-width="2.34375" stroke-miterlimit="10" stroke-linecap="round" stroke-linejoin="round"/>
</g>
<defs>
<linearGradient id="paint0_linear_1_398" x1="43.9415" y1="39.2949" x2="43.9415" y2="30.386" gradientUnits="userSpaceOnUse">
<stop offset="0.286458" stop-color="#FB9505"/>
<stop offset="1" stop-color="#FC0076"/>
</linearGradient>
<linearGradient id="paint1_linear_1_398" x1="22.3422" y1="39.1631" x2="22.3422" y2="30.5176" gradientUnits="userSpaceOnUse">
<stop offset="0.286458" stop-color="#FB9505"/>
<stop offset="1" stop-color="#FC0076"/>
</linearGradient>
<linearGradient id="paint2_linear_1_398" x1="57.267" y1="39.2949" x2="57.267" y2="30.386" gradientUnits="userSpaceOnUse">
<stop offset="0.286458" stop-color="#FB9505"/>
<stop offset="1" stop-color="#FC0076"/>
</linearGradient>
<linearGradient id="paint3_linear_1_398" x1="32.067" y1="39.2542" x2="32.067" y2="30.4265" gradientUnits="userSpaceOnUse">
<stop offset="0.286458" stop-color="#FB9505"/>
<stop offset="1" stop-color="#FC0076"/>
</linearGradient>
<linearGradient id="paint4_linear_1_398" x1="31.9299" y1="34.8403" x2="31.9299" y2="33.8403" gradientUnits="userSpaceOnUse">
<stop offset="0.286458" stop-color="#FB9505"/>
<stop offset="1" stop-color="#FC0076"/>
</linearGradient>
<linearGradient id="paint5_linear_1_398" x1="40" y1="58.5532" x2="40" y2="11.4821" gradientUnits="userSpaceOnUse">
<stop offset="0.286458" stop-color="#FB9505"/>
<stop offset="1" stop-color="#FC0076"/>
</linearGradient>
<linearGradient id="paint6_linear_1_398" x1="39.9999" y1="52.924" x2="39.9999" y2="16.9507" gradientUnits="userSpaceOnUse">
<stop offset="0.286458" stop-color="#FB9505"/>
<stop offset="1" stop-color="#FC0076"/>
</linearGradient>
<linearGradient id="paint7_linear_1_398" x1="40.0002" y1="68.5178" x2="40.0002" y2="58.5531" gradientUnits="userSpaceOnUse">
<stop offset="0.286458" stop-color="#FB9505"/>
<stop offset="1" stop-color="#FC0076"/>
</linearGradient>
<linearGradient id="paint8_linear_1_398" x1="38.8363" y1="63.5356" x2="38.8363" y2="58.5533" gradientUnits="userSpaceOnUse">
<stop offset="0.286458" stop-color="#FB9505"/>
<stop offset="1" stop-color="#FC0076"/>
</linearGradient>
</defs>
</svg>
